<?xml version="1.0" encoding="utf-8"?>
<!-- Generator: Adobe Illustrator 23.0.3, SVG Export Plug-In . SVG Version: 6.00 Build 0)  -->
<svg version="1.1" id="Icons" xmlns="http://www.w3.org/2000/svg" xmlns:xlink="http://www.w3.org/1999/xlink" x="0px" y="0px"
	 viewBox="0 0 32 32" style="enable-background:new 0 0 32 32;" xml:space="preserve">
<style type="text/css">
	.st0{fill:none;stroke:#000000;stroke-width:2;stroke-linecap:round;stroke-linejoin:round;stroke-miterlimit:10;}
	.st1{fill:none;stroke:#000000;stroke-width:2;stroke-linejoin:round;stroke-miterlimit:10;}
</style>
<path class="st0" d="M29.8,21.2c-1.1,0.2-2,0-2.4-0.7c-0.4-0.7-0.1-1.7,0.6-2.5c-0.9-0.9-1.9-1.5-3.1-1.8c-0.3,1-1,1.8-1.8,1.8
	s-1.5-0.7-1.8-1.8c-1.2,0.3-2.3,0.9-3.1,1.8c0.7,0.8,1,1.8,0.6,2.5c-0.4,0.7-1.4,0.9-2.4,0.7C16.1,21.8,16,22.4,16,23
	s0.1,1.2,0.2,1.8c1.1-0.2,2,0,2.4,0.7c0.4,0.7,0.1,1.7-0.6,2.5c0.9,0.9,1.9,1.5,3.1,1.8c0.3-1,1-1.8,1.8-1.8s1.5,0.7,1.8,1.8
	c1.2-0.3,2.3-0.9,3.1-1.8c-0.7-0.8-1-1.8-0.6-2.5c0.4-0.7,1.4-0.9,2.4-0.7c0.2-0.6,0.2-1.2,0.2-1.8S29.9,21.8,29.8,21.2z"/>
<circle class="st0" cx="23" cy="23" r="2"/>
<path class="st0" d="M19.5,16.9c0.9-1.1,1.5-2.4,1.5-3.9v0c0-1.1,0.9-2,2-2h0l0-2.3c0-2.8-2.1-5.4-4.9-5.7c-2-0.2-3.8,0.6-4.9,2.1
	c-0.8-0.2-1.6-0.1-2.6,0.6C9.6,6.4,9,7.7,9,9l0,1v1.5v1.3c0,2.2,1.2,4.3,3,5.4v0c0,2.3-1.6,4.2-3.8,4.8c-2.6,0.7-4.5,2.8-5.1,5.4
	C3.1,28.7,3.3,29,3.7,29h15.7"/>
</svg>
