<?xml version="1.0" encoding="utf-8"?>
<!-- Generator: Adobe Illustrator 23.0.3, SVG Export Plug-In . SVG Version: 6.00 Build 0)  -->
<svg version="1.1" id="Icons" xmlns="http://www.w3.org/2000/svg" xmlns:xlink="http://www.w3.org/1999/xlink" x="0px" y="0px"
	 viewBox="0 0 32 32" style="enable-background:new 0 0 32 32;" xml:space="preserve">
<style type="text/css">
	.st0{fill:none;stroke:#000000;stroke-width:2;stroke-linecap:round;stroke-linejoin:round;stroke-miterlimit:10;}
</style>
<path d="M29.8,6.2l-3-3.9C26.5,2,26,1.9,25.6,2.1l-1.2,0.6c-2.9,1.4-6.1,1.7-9.2,0.8c-1.3-0.4-2.7-0.5-4-0.5H5C4.4,3,4,3.4,4,4v11.6
	c0,0.6,0.4,1,1,1h4c0.6,0,1-0.4,1-1c0-1.6,1.3-2.9,3-2.9h2.9l-1.5,1.8c-3.5,4.2-6,9-7.4,14.3C7,29,7,29.4,7.2,29.6S7.7,30,8,30h13
	c0.6,0,1-0.4,1-1c0-5.5,1.5-10.9,4.3-15.7l3.5-6C30.1,7,30,6.6,29.8,6.2z"/>
</svg>
