<?xml version="1.0" encoding="utf-8"?>
<!-- Generator: Adobe Illustrator 25.2.3, SVG Export Plug-In . SVG Version: 6.00 Build 0)  -->
<svg version="1.1"
	 id="Camada_1" xmlns:cc="http://creativecommons.org/ns#" xmlns:dc="http://purl.org/dc/elements/1.1/" xmlns:rdf="http://www.w3.org/1999/02/22-rdf-syntax-ns#"
	 xmlns="http://www.w3.org/2000/svg" xmlns:xlink="http://www.w3.org/1999/xlink" x="0px" y="0px" viewBox="0 0 24 24"
	 style="enable-background:new 0 0 24 24;" xml:space="preserve">
<style type="text/css">
	.st0{fill:#8E2514;}
	.st1{fill:#C13D22;}
	.st2{fill:#ECF0F1;}
</style>
<g transform="translate(0 -1028.4)">
	<path class="st0" d="M22,1041.4c0,5.5-4.5,10-10,10c-5.5,0-10-4.5-10-10c0-5.5,4.5-10,10-10C17.5,1031.4,22,1035.9,22,1041.4z"/>
	<path class="st1" d="M22,1040.4c0,5.5-4.5,10-10,10c-5.5,0-10-4.5-10-10c0-5.5,4.5-10,10-10C17.5,1030.4,22,1034.9,22,1040.4z"/>
	<path class="st0" d="M6,1042.4h5h2h5v-2h-5h-2H6V1042.4z"/>
	<path class="st2" d="M6,1041.4h5h2h5v-2H6V1041.4z"/>
</g>
</svg>
