<?xml version="1.0" encoding="utf-8"?>
<!-- Generator: Adobe Illustrator 25.2.3, SVG Export Plug-In . SVG Version: 6.00 Build 0)  -->
<svg version="1.1"
	 id="Camada_1" xmlns:cc="http://creativecommons.org/ns#" xmlns:dc="http://purl.org/dc/elements/1.1/" xmlns:rdf="http://www.w3.org/1999/02/22-rdf-syntax-ns#"
	 xmlns="http://www.w3.org/2000/svg" xmlns:xlink="http://www.w3.org/1999/xlink" x="0px" y="0px" viewBox="0 0 23 18.4"
	 style="enable-background:new 0 0 23 18.4;" xml:space="preserve">
<style type="text/css">
	.st0{fill:#F39C12;}
	.st1{fill:#F1C40F;}
</style>
<g transform="translate(0 -1028.4)">
	<g transform="matrix(1.9176 0 0 1.1179 18.509 -118.14)">
		<g transform="translate(-18.773 13.418)">
			<path class="st0" d="M11.5,1024.6c-0.7,0-1.3,0.3-1.7,0.7H9.1v0.4v0.2v0.1v0.1v0.6c0,1.1,1.1,2.1,2.4,2.1s2.4-0.9,2.4-2.1v-0.6
				v-0.1v-0.1v-0.2v-0.4h-0.6C12.8,1024.8,12.2,1024.6,11.5,1024.6z"/>
			<path class="st1" d="M13.9,1025.2c0,1.1-1.1,2.1-2.4,2.1s-2.4-0.9-2.4-2.1c0-1.1,1.1-2.1,2.4-2.1S13.9,1024.1,13.9,1025.2z"/>
		</g>
		<g>
			<g transform="translate(-18.773 11.629)">
				<path class="st0" d="M11.5,1023.6c-0.7,0-1.3,0.3-1.7,0.7H9.1v0.4v0.2v0.1v0.1v0.6c0,1.1,1.1,2.1,2.4,2.1s2.4-0.9,2.4-2.1v-0.6
					v-0.1v-0.1v-0.2v-0.4h-0.6C12.8,1023.9,12.2,1023.6,11.5,1023.6z"/>
				<path class="st1" d="M13.9,1024.3c0,1.1-1.1,2.1-2.4,2.1s-2.4-0.9-2.4-2.1c0-1.1,1.1-2.1,2.4-2.1S13.9,1023.1,13.9,1024.3z"/>
			</g>
			<g transform="translate(-18.773 9.8401)">
				<path class="st0" d="M11.5,1022.7c-0.7,0-1.3,0.3-1.7,0.7H9.1v0.4v0.2v0.1v0.1v0.6c0,1.1,1.1,2.1,2.4,2.1s2.4-0.9,2.4-2.1v-0.6
					v-0.1v-0.1v-0.2v-0.4h-0.6C12.8,1022.9,12.2,1022.7,11.5,1022.7z"/>
				<path class="st1" d="M13.9,1023.3c0,1.1-1.1,2.1-2.4,2.1s-2.4-0.9-2.4-2.1c0-1.1,1.1-2.1,2.4-2.1S13.9,1022.2,13.9,1023.3z"/>
			</g>
			<g transform="translate(-18.773 8.0509)">
				<path class="st0" d="M11.5,1021.7c-0.7,0-1.3,0.3-1.7,0.7H9.1v0.4v0.2v0.1v0.1v0.6c0,1.1,1.1,2.1,2.4,2.1s2.4-0.9,2.4-2.1v-0.6
					v-0.1v-0.1v-0.2v-0.4h-0.6C12.8,1022,12.2,1021.7,11.5,1021.7z"/>
				<path class="st1" d="M13.9,1022.4c0,1.1-1.1,2.1-2.4,2.1s-2.4-0.9-2.4-2.1s1.1-2.1,2.4-2.1S13.9,1021.2,13.9,1022.4z"/>
			</g>
			<g transform="translate(-15.123 13.418)">
				<path class="st0" d="M13.5,1024.6c-0.7,0-1.3,0.3-1.7,0.7h-0.6v0.4v0.2v0.1v0.1v0.6c0,1.1,1.1,2.1,2.4,2.1s2.4-0.9,2.4-2.1v-0.6
					v-0.1v-0.1v-0.2v-0.4h-0.6C14.8,1024.8,14.2,1024.6,13.5,1024.6z"/>
				<path class="st1" d="M15.9,1025.2c0,1.1-1.1,2.1-2.4,2.1s-2.4-0.9-2.4-2.1c0-1.1,1.1-2.1,2.4-2.1S15.9,1024.1,15.9,1025.2z"/>
			</g>
			<g transform="translate(-14.08 12.524)">
				<path class="st0" d="M14,1024.1c-0.7,0-1.3,0.3-1.7,0.7h-0.6v0.4v0.2v0.1v0.1v0.6c0,1.1,1.1,2.1,2.4,2.1s2.4-0.9,2.4-2.1v-0.6
					v-0.1v-0.1v-0.2v-0.4h-0.6C15.3,1024.4,14.7,1024.1,14,1024.1z"/>
				<path class="st1" d="M16.4,1024.8c0,1.1-1.1,2.1-2.4,2.1s-2.4-0.9-2.4-2.1c0-1.1,1.1-2.1,2.4-2.1S16.4,1023.6,16.4,1024.8z"/>
			</g>
			<g transform="translate(-18.773 6.2618)">
				<path class="st0" d="M11.5,1020.7c-0.7,0-1.3,0.3-1.7,0.7H9.1v0.4v0.2v0.1v0.1v0.6c0,1.1,1.1,2.1,2.4,2.1s2.4-0.9,2.4-2.1v-0.6
					v-0.1v-0.1v-0.2v-0.4h-0.6C12.8,1021,12.2,1020.7,11.5,1020.7z"/>
				<path class="st1" d="M13.9,1021.4c0,1.1-1.1,2.1-2.4,2.1s-2.4-0.9-2.4-2.1s1.1-2.1,2.4-2.1S13.9,1020.3,13.9,1021.4z"/>
			</g>
		</g>
	</g>
</g>
</svg>
