<?xml version="1.0" encoding="utf-8"?>
<!-- Generator: Adobe Illustrator 23.0.3, SVG Export Plug-In . SVG Version: 6.00 Build 0)  -->
<svg version="1.1" id="Icons" xmlns="http://www.w3.org/2000/svg" xmlns:xlink="http://www.w3.org/1999/xlink" x="0px" y="0px"
	 viewBox="0 0 32 32" style="enable-background:new 0 0 32 32;" xml:space="preserve">
<style type="text/css">
	.st0{fill:none;stroke:#000000;stroke-width:2;stroke-linecap:round;stroke-linejoin:round;stroke-miterlimit:10;}
</style>
<path class="st0" d="M25,29H1V9c0-3.3,2.7-6,6-6h12c3.3,0,6,2.7,6,6V29z"/>
<rect x="9" y="11" class="st0" width="8" height="10"/>
<rect x="1" y="11" class="st0" width="8" height="10"/>
<rect x="17" y="11" class="st0" width="8" height="10"/>
<line class="st0" x1="9" y1="25" x2="16" y2="25"/>
<circle class="st0" cx="29" cy="5" r="2"/>
<polyline class="st0" points="25,19 29,19 29,7 "/>
<path class="st0" d="M4,14h2l-0.6,0.6C4.5,15.5,4,16.7,4,18v0"/>
<path class="st0" d="M12,14h2l-0.6,0.6C12.5,15.5,12,16.7,12,18v0"/>
<path class="st0" d="M20,14h2l-0.6,0.6C20.5,15.5,20,16.7,20,18v0"/>
</svg>
